<svg xmlns="http://www.w3.org/2000/svg" viewBox="0 0 32 32" fill="none">
  <rect width="32" height="32" rx="8" fill="#0a0a0a"/>
  <path d="M16 4C16 4 11 12 8 16C5 20 5 24 8 26C11 28 14 27 16 24C18 27 21 28 24 26C27 24 27 20 24 16C21 12 16 4 16 4Z" fill="#ea580c"/>
  <path d="M16 8C16 8 13 14 11 17C9.5 19.5 9.5 22 11 23.5C12.5 25 14.5 24.5 16 22.5C17.5 24.5 19.5 25 21 23.5C22.5 22 22.5 19.5 21 17C19 14 16 8 16 8Z" fill="#f97316"/>
  <path d="M16 12C16 12 14.5 16 13.5 18C12.8 19.5 12.8 21 13.5 22C14.2 23 15.2 22.8 16 21.5C16.8 22.8 17.8 23 18.5 22C19.2 21 19.2 19.5 18.5 18C17.5 16 16 12 16 12Z" fill="#fdba74"/>
</svg>
